PathFileType  4	(X/Y/Z) C:\Users\antoi\Documents\MyRepositories\mobilecap\ResultsAnalysis
DataRate	CameraRate	NumFrames	NumMarkers	Units	OrigDataRate	OrigDataStartFrame	OrigNumFrames
100.0	100.0	6	51	mm	100.0	236	269
Frame#	Time	r_knee			r_shank_antsup			r_ankle			r_calc			r_5meta			r_toe			L_knee			L_shank_antsup			L_ankle			L_calc			L_5meta			L_toe			r_sh2			r_sh3			r_sh4			L_sh2			L_sh3			r_thigh1			r_thigh2			r_thigh3			r_thigh4			r_thigh5			L_thigh1			L_thigh2			L_thigh3			L_thigh4			r.ASIS			r.PSIS			L.ASIS			L.PSIS			C7			R_Shoulder			L_Shoulder			R_Sternum			L_Sternum			R_humerus			R_elbow_med			R_elbow_lat			R_forearm			R_wrist_radius			R_wrist_ulna			L_humerus			L_elbow_med			L_elbow_lat			L_forearm			L_wrist_radius			L_wrist_ulna			R_HJC			L_HJC			R_HJC_reg			L_HJC_reg			
		X1	Y1	Z1	X2	Y2	Z2	X3	Y3	Z3	X4	Y4	Z4	X5	Y5	Z5	X6	Y6	Z6	X7	Y7	Z7	X8	Y8	Z8	X9	Y9	Z9	X10	Y10	Z10	X11	Y11	Z11	X12	Y12	Z12	X13	Y13	Z13	X14	Y14	Z14	X15	Y15	Z15	X16	Y16	Z16	X17	Y17	Z17	X18	Y18	Z18	X19	Y19	Z19	X20	Y20	Z20	X21	Y21	Z21	X22	Y22	Z22	X23	Y23	Z23	X24	Y24	Z24	X25	Y25	Z25	X26	Y26	Z26	X27	Y27	Z27	X28	Y28	Z28	X29	Y29	Z29	X30	Y30	Z30	X31	Y31	Z31	X32	Y32	Z32	X33	Y33	Z33	X34	Y34	Z34	X35	Y35	Z35	X36	Y36	Z36	X37	Y37	Z37	X38	Y38	Z38	X39	Y39	Z39	X40	Y40	Z40	X41	Y41	Z41	X42	Y42	Z42	X43	Y43	Z43	X44	Y44	Z44	X45	Y45	Z45	X46	Y46	Z46	X47	Y47	Z47	X48	Y48	Z48	X49	Y49	Z49	X50	Y50	Z50	X51	Y51	Z51	

236	2.35000000	-170.84958	812.86208	-419.10801	-144.13334	722.90638	-402.41059	-222.57725	409.20480	-385.86409	-267.12444	427.43945	-451.11349	-189.28407	277.11366	-340.94094	-128.07588	278.11556	-371.78653	-167.09524	801.20134	-796.88831	-134.18546	720.03669	-805.11902	-196.81427	389.96470	-810.62465	-251.79077	404.09778	-737.04711	-167.13317	259.87123	-840.88752	-97.56130	256.53221	-813.09467	-148.92517	609.61989	-388.43817	-214.41164	729.03305	-377.91992	-227.78551	614.98421	-363.39477	-222.96124	734.73348	-817.58300	-229.56375	613.04272	-830.19120	-102.06980	1091.37201	-432.83877	-99.29441	979.91265	-432.48709	-153.22185	954.02685	-400.70326	-215.13130	1084.25197	-422.36172	-203.70785	968.42148	-421.10717	-94.11294	1048.89242	-808.37310	-80.10134	909.69982	-794.67953	-202.05720	1038.14343	-826.87334	-188.41350	906.19788	-807.65716	-59.06328	1275.69801	-511.87633	-252.89521	1321.22216	-583.17177	-66.72711	1272.65709	-758.92138	-252.32801	1318.19743	-674.07074	-202.90801	1769.09623	-635.71534	-169.90063	1795.79008	-525.55471	-164.12090	1771.00099	-738.37362	-65.05707	1719.55861	-605.81364	-64.22369	1715.91675	-650.99157	-127.70446	1867.87844	-499.36143	53.47753	1946.60995	-405.48687	-2.37677	1979.24276	-382.33677	-1.77220	2054.48661	-437.41063	77.14660	2167.73673	-537.80345	64.75663	2191.29703	-493.27839	-119.67393	1836.28588	-773.17896	51.48870	1916.71601	-855.47340	-15.34729	1959.56680	-864.92483	-3.72862	2018.41164	-808.96070	86.99731	2137.54498	-716.14797	68.47731	2163.63244	-758.49399	-142.72369	1193.52088	-529.29475	-148.09799	1191.93189	-718.77397	-138.90844	1208.15390	-544.75520	-137.88258	1202.72223	-707.80299	
237	2.36000000	-168.85246	813.24783	-419.60631	-141.41716	722.63540	-404.83658	-222.72500	410.71669	-385.79283	-267.62055	427.91778	-450.90401	-189.18599	277.55856	-341.16837	-128.41151	278.29408	-372.73812	-165.66371	801.66060	-797.58076	-132.07234	720.34954	-805.00568	-195.77850	390.39990	-811.61015	-251.18132	404.39983	-738.48622	-165.91520	260.51957	-842.15534	-96.43229	257.24771	-814.21883	-146.59079	609.69370	-390.14308	-211.06598	729.24785	-377.46112	-224.31995	615.53428	-362.51964	-220.55086	735.25161	-819.68049	-227.02536	613.53687	-832.35039	-101.65068	1091.67180	-433.28071	-98.72874	980.22137	-432.93326	-152.56382	954.11936	-400.97802	-214.65753	1084.45850	-422.36449	-203.07287	968.51624	-421.23625	-93.37027	1049.64201	-808.05923	-79.39713	910.48193	-794.55703	-201.09855	1038.81740	-827.88154	-187.45458	906.78194	-808.79252	-59.81411	1277.22632	-512.48655	-252.85951	1322.37185	-582.32146	-66.58700	1273.03338	-757.85244	-252.53335	1319.19555	-675.01216	-202.54371	1770.16106	-636.50480	-169.62605	1796.22082	-526.60491	-163.96948	1771.30689	-740.01883	-64.88051	1719.86256	-607.28876	-64.20540	1716.10720	-652.63975	-127.05876	1868.09483	-500.05446	53.71479	1946.60129	-404.94140	-2.25230	1979.38562	-382.46158	-1.94824	2054.11198	-438.25251	76.22778	2165.96122	-540.51541	63.60071	2190.11892	-496.49822	-119.08726	1836.24036	-775.24429	51.00062	1916.07830	-860.71922	-15.92676	1959.07917	-868.45033	-4.40988	2017.09544	-812.02933	84.60964	2135.29337	-718.08070	67.03337	2161.67510	-760.31478	-143.14765	1194.94588	-528.75538	-148.23828	1192.58061	-718.23488	-138.76154	1209.61824	-544.82205	-138.19279	1204.06587	-706.75277	
238	2.37000000	-167.69559	812.29509	-420.06077	-139.00725	721.46354	-407.11637	-222.59986	410.11720	-385.77382	-267.82628	427.40365	-450.68135	-188.69362	276.92406	-341.65122	-128.23379	277.47664	-374.13177	-164.71793	801.14305	-798.27119	-130.03878	719.77529	-804.79073	-194.11366	389.61766	-812.75690	-250.28797	403.38776	-740.21321	-163.42437	259.89441	-843.12662	-94.17076	256.95304	-814.58434	-144.63811	608.72971	-391.86742	-208.05134	728.51676	-377.08571	-221.17118	615.22792	-361.76822	-218.19044	734.66543	-821.63870	-224.26665	612.99217	-834.80148	-101.64292	1090.89315	-433.47704	-98.85729	979.55811	-433.07256	-152.62314	953.60114	-401.08514	-214.59578	1083.95245	-422.50161	-203.14276	967.94880	-421.45909	-92.97538	1049.16840	-807.97115	-79.40454	910.04105	-794.77419	-200.54204	1038.46404	-828.51668	-187.22428	906.43018	-809.70384	-60.22765	1277.36634	-512.66888	-252.88437	1323.69150	-582.32211	-66.87922	1272.80573	-756.77532	-252.69007	1320.25633	-675.46699	-202.31183	1770.10031	-637.25766	-169.33947	1795.99728	-527.67135	-164.16525	1770.34859	-741.39974	-64.95741	1719.21528	-608.73440	-64.44252	1715.28237	-654.43089	-125.84262	1867.39312	-500.37961	54.37638	1945.51822	-404.17300	-1.38712	1978.48713	-382.55724	-1.63923	2052.59031	-438.76099	75.77247	2163.00523	-542.86712	62.90278	2187.69745	-499.34327	-118.55434	1834.83433	-777.09686	50.84143	1913.48193	-865.00121	-16.18353	1956.79656	-872.05526	-5.08688	2014.36187	-815.86284	82.17578	2131.83811	-720.20499	65.64909	2158.34181	-762.47082	-144.20401	1195.65887	-528.39078	-148.99581	1192.90078	-717.87287	-139.38323	1210.70117	-544.54818	-139.04863	1204.76278	-705.63638	
239	2.38000000	-167.14703	810.74836	-420.32763	-137.46569	719.61448	-408.74787	-221.89738	407.65787	-386.12166	-267.79097	425.90620	-450.59926	-187.76566	275.22186	-342.61865	-127.50858	275.78426	-375.68973	-164.28327	799.70927	-799.09864	-128.33400	718.26461	-804.63351	-192.04425	387.77755	-814.22790	-249.16083	401.21797	-742.22863	-160.14933	258.23966	-844.13514	-91.22660	255.70072	-814.59033	-143.32900	606.95147	-393.28409	-205.83338	726.97083	-376.93147	-219.04578	613.97630	-361.28331	-216.14349	733.05238	-823.39700	-221.68446	611.42396	-837.22148	-101.96160	1089.24447	-433.31532	-99.43248	978.04749	-432.80147	-153.19832	952.28479	-401.10966	-214.93667	1082.59372	-422.72586	-203.70759	966.60524	-421.68912	-92.96578	1047.54521	-808.03711	-79.71042	908.41718	-795.27456	-200.50161	1037.01418	-828.57281	-187.49110	905.05556	-810.21312	-60.44126	1276.19620	-512.40610	-252.62909	1325.05294	-582.81950	-67.39740	1271.79544	-755.98852	-252.64472	1321.04039	-675.55345	-202.25009	1768.79705	-638.10002	-169.15070	1794.96332	-528.76485	-164.54707	1768.12559	-742.56737	-65.24941	1717.65303	-610.17181	-65.00059	1713.46913	-656.07578	-124.58942	1865.88172	-500.55162	55.63896	1942.99630	-403.50745	-0.13102	1976.30244	-382.39019	-0.92269	2049.67796	-438.89713	75.49361	2158.64056	-544.95307	62.55682	2183.84581	-501.86750	-118.23768	1832.18190	-778.88595	50.90528	1908.96041	-868.32619	-16.23348	1952.68328	-875.98274	-5.71510	2010.06251	-820.64768	79.69816	2127.21108	-722.60884	64.27241	2153.73888	-765.30772	-145.64693	1195.62188	-528.13168	-150.18770	1192.69212	-717.61728	-140.54346	1211.51333	-543.67268	-140.57082	1204.55940	-704.37661	
240	2.39000000	-167.06766	808.84293	-420.23849	-137.03936	717.23550	-409.33271	-221.08596	404.06606	-386.81643	-267.41782	423.34536	-451.07423	-186.57781	272.31616	-344.12001	-126.37444	273.29302	-377.18398	-164.14201	797.45777	-799.97448	-126.99873	715.86513	-804.70983	-189.82274	385.03596	-815.99173	-247.76610	398.18866	-744.54203	-156.75609	255.60754	-845.22832	-88.12907	253.59846	-814.82708	-142.70575	604.52065	-394.05632	-205.12939	724.48859	-377.10075	-218.19371	611.56494	-361.34832	-214.48222	730.54676	-824.99754	-219.48179	608.94343	-839.37933	-102.52786	1086.87462	-432.88341	-100.18955	975.69278	-432.21034	-154.12745	949.97936	-401.04464	-215.60445	1080.39906	-422.94373	-204.54669	964.36176	-421.87056	-93.25816	1044.93727	-808.12053	-80.14851	905.78251	-795.76558	-200.91852	1034.60065	-828.41425	-187.95726	902.66211	-810.54364	-60.79157	1274.03216	-511.53330	-252.12868	1325.90836	-583.54648	-68.07080	1270.00092	-755.72900	-252.48249	1321.21629	-675.67991	-202.42085	1766.38796	-639.08419	-169.20562	1792.97617	-530.18384	-165.02060	1764.81618	-743.75916	-65.70409	1715.15214	-611.62150	-65.75376	1710.70817	-657.54070	-123.99671	1863.87161	-500.19107	57.61041	1938.66689	-403.31179	1.54280	1972.55581	-381.87626	0.17812	2045.20346	-438.78793	75.00670	2152.62769	-546.91754	62.43665	2178.31583	-504.12552	-118.18996	1828.19855	-780.63623	51.05581	1902.74093	-870.73389	-16.09920	1946.84424	-880.28930	-6.28416	2004.16169	-826.25612	77.23917	2121.39904	-725.38165	62.95605	2147.83053	-768.64762	-147.34454	1194.80679	-527.96120	-151.54458	1191.79341	-717.45313	-141.99083	1211.52972	-542.20607	-142.61036	1203.32645	-703.25784	
241	2.40000000	-167.56733	805.76925	-420.00906	-137.47262	714.16776	-408.90594	-220.49347	399.97726	-387.69202	-266.60882	419.68833	-452.29754	-185.41322	268.26704	-345.96168	-125.05390	269.98896	-378.57476	-163.98907	794.26264	-800.69157	-125.98211	712.60389	-805.19985	-187.60501	381.47863	-817.86883	-246.15488	394.42054	-746.99739	-153.63344	252.10453	-846.56022	-85.24843	250.62211	-815.65048	-142.75436	601.31560	-394.19249	-205.97126	720.98177	-377.56301	-218.60746	608.07617	-362.06696	-213.29952	727.09233	-826.19296	-217.81409	605.60342	-841.04683	-103.29624	1083.76487	-432.31729	-100.94242	972.44036	-431.58681	-155.16837	946.75313	-400.72646	-216.50649	1077.28213	-423.02135	-205.43142	961.12171	-421.94883	-93.72303	1041.51023	-808.10594	-80.40812	902.24668	-796.07633	-201.48324	1031.30476	-828.35858	-188.41867	899.25589	-810.77856	-61.34411	1270.99931	-510.23806	-251.78679	1325.67277	-584.40299	-68.87412	1267.40318	-755.72807	-252.38560	1320.50749	-676.01938	-202.82675	1762.94353	-640.33551	-169.53531	1789.93678	-532.12309	-165.69305	1760.53647	-745.00315	-66.18965	1711.72060	-613.11209	-66.35870	1707.07887	-659.38572	-123.67833	1861.03156	-499.37707	60.05112	1932.50014	-403.19418	3.77343	1966.96097	-380.87232	1.65915	2039.03995	-438.36391	74.29462	2144.74417	-548.72853	62.44408	2170.90450	-506.14072	-118.36473	1822.80914	-782.47132	51.24266	1895.07109	-872.65919	-15.74420	1939.43391	-884.88469	-6.88610	1996.91846	-832.20365	74.91671	2114.28974	-728.48459	61.79216	2140.54162	-772.09975	-149.21441	1193.07142	-527.86579	-152.89173	1190.03397	-717.36800	-143.60643	1210.21941	-540.64395	-144.66349	1201.09348	-702.50110	
